<svg id="Layer_1" data-name="Layer 1" xmlns="http://www.w3.org/2000/svg" viewBox="0 0 112.6 110.55"><defs><style>.cls-1,.cls-2{stroke-miterlimit:10;}.cls-1{stroke-width:5px;}.cls-2{font-size:36px;stroke-width:3px;font-family:STIXGeneral-Regular, STIXGeneral Regular;}</style></defs><path class="cls-1" d="M289.85,200.43c52.35,5.42,50,50,50,50l-4.89-4s-2.71-39.43-45.11-41.34c0,0-2.58,60.81,0,78.11S305,291.9,305,291.9l9.32,3.9c-32,22.92-56.44,0-56.44,0l9.31-3.9s12.55,8.65,15.13-8.65,0-78.11,0-78.11c-42.4,1.91-45.11,41.34-45.11,41.34l-4.89,4s-2.35-44.58,50-50Z" transform="translate(-229.77 -197.93)"/><text class="cls-2" transform="translate(25.03 66.51)">1</text><text class="cls-2" transform="translate(71.04 66.77)">6</text></svg> 